#N canvas 538 37 634 481 10;
#X declare -stdpath blokas;
#X obj 20 363 tgl 15 0 empty empty empty 17 7 0 10 -262144 -1 -1 0
1;
#X obj 20 291 packOSC;
#X obj 20 327 udpsend;
#X obj 20 198 r oscOut;
#X msg 175 313 connect localhost 4000;
#X obj 175 199 metro 1000;
#X obj 175 92 loadbang;
#X text 45 364 connected;
#X msg 202 166 \; pd dsp 1 \;;
#X obj 20 403 s oscConnected;
#X obj 20 241 spigot 0;
#X obj 65 220 r oscConnected;
#X obj 175 226 delay 100;
#X obj 202 144 delay 200;
#X text 166 18 This patch controls the video engine via osc;
#N canvas 366 22 1251 1002 metro-and-trig 0;
#N canvas 0 160 1216 609 metronome 0;
#X floatatom 393 117 5 0 0 1 tempo - -;
#X obj 165 127 * 360;
#X obj 165 149 i;
#X obj 616 57 midirealtimein;
#X text 932 98 MIDI 248 = clock \; 250 = start \; 251 = continue. 252
= stop;
#X obj 616 108 sel 248 250 251 252 254, f 38;
#X obj 616 244 f;
#X obj 682 243 + 1;
#X obj 616 266 t f f;
#X obj 616 311 % 24;
#X obj 616 356 * 15;
#X obj 616 406 i;
#X obj 773 134 s midi-stop;
#X obj 668 193 s midi-start;
#X obj 721 163 s midi-cont;
#X obj 165 476 clockfix;
#N canvas 27 96 815 554 LINK 0;
#X msg 355 126 tempo \$1;
#X msg 144 127 resolution \$1;
#X msg 247 147 reset \$1 \$2;
#X obj 247 126 pack f f;
#X floatatom 266 247 5 0 0 1 beat_time - -;
#X floatatom 180 285 5 0 0 1 step - -;
#X floatatom 378 246 5 0 0 1 tempo - -;
#X obj 59 105 tgl 15 0 empty empty empty 17 7 0 10 -262144 -1 -1 1
1;
#X obj 180 199 abl_link~ 1 0 4 134;
#X floatatom 355 107 5 0 0 2 tempo - -;
#X floatatom 292 107 5 0 0 2 quantum - -;
#X floatatom 247 107 5 0 0 2 beat - -;
#X floatatom 144 107 5 0 0 2 resolution - -;
#X msg 59 125 connect \$1;
#X floatatom 510 231 5 0 0 0 - - -;
#X obj 510 209 r #abl_link_num_peers;
#X obj 32 45 loadbang;
#X obj 32 67 delay 100;
#X obj 267 326 wrap;
#X obj 285 31 inlet;
#X obj 388 273 i;
#X obj 267 388 outlet;
#X obj 388 295 outlet;
#X obj 510 261 > 0;
#X obj 510 283 s link-session-present;
#X connect 0 0 8 0;
#X connect 1 0 8 0;
#X connect 2 0 8 0;
#X connect 3 0 2 0;
#X connect 6 0 20 0;
#X connect 7 0 13 0;
#X connect 8 0 5 0;
#X connect 8 1 18 0;
#X connect 8 2 4 0;
#X connect 8 3 6 0;
#X connect 9 0 0 0;
#X connect 10 0 3 1;
#X connect 11 0 3 0;
#X connect 12 0 1 0;
#X connect 13 0 8 0;
#X connect 14 0 23 0;
#X connect 15 0 14 0;
#X connect 16 0 17 0;
#X connect 17 0 7 0;
#X connect 18 0 21 0;
#X connect 19 0 9 0;
#X connect 20 0 22 0;
#X connect 23 0 24 0;
#X restore 165 88 pd LINK - - - - - - - - - - - - -;
#X obj 616 476 clockfix;
#X obj 616 536 outlet midiclk;
#X obj 165 536 outlet linkclk;
#X text 225 14 This metronome outputs 360 ticks per beat numbered 0-359.
;
#X text 295 471 the clockfix object ensures there are always 360 ticks
numbered 0-359., f 40;
#X connect 1 0 2 0;
#X connect 2 0 15 0;
#X connect 3 0 5 0;
#X connect 5 0 6 0;
#X connect 5 1 13 0;
#X connect 5 2 14 0;
#X connect 5 3 12 0;
#X connect 6 0 8 0;
#X connect 7 0 6 1;
#X connect 8 0 9 0;
#X connect 8 1 7 0;
#X connect 9 0 10 0;
#X connect 10 0 11 0;
#X connect 11 0 17 0;
#X connect 15 0 19 0;
#X connect 16 0 1 0;
#X connect 16 1 0 0;
#X connect 17 0 18 0;
#X restore 49 36 pd metronome;
#X obj 181 95 r midiNoteIn;
#X obj 181 117 unpack 0 0;
#X obj 181 142 stripnote;
#X obj 181 170 bng 15 250 50 0 empty empty empty 17 7 0 10 -262144
-1 -1;
#X msg 96 281 sendtyped /trig i 1;
#X obj 216 216 r trigSource;
#X floatatom 216 243 5 0 0 0 - - -;
#X obj 49 142 sel 0 180;
#X obj 118 142 sel 0 180;
#X obj 118 168 bng 15 250 50 0 empty empty empty 17 7 0 10 -262144
-1 -1;
#X obj 143 169 bng 15 250 50 0 empty empty empty 17 7 0 10 -262144
-1 -1;
#X obj 49 162 bng 15 250 50 0 empty empty empty 17 7 0 10 -262144 -1
-1;
#X obj 74 163 bng 15 250 50 0 empty empty empty 17 7 0 10 -262144 -1
-1;
#X obj 96 256 sel 0;
#X obj 49 90 spigot;
#X obj 82 62 r link-session-present;
#X obj 96 305 outlet sendOSC;
#X text 47 10 See etc_system.py for trigger_sources;
#X msg 49 190 2, f 2;
#X msg 74 190 3, f 2;
#X msg 118 193 4, f 2;
#X msg 143 192 5, f 2;
#X msg 181 194 6;
#X connect 0 0 15 0;
#X connect 0 1 9 0;
#X connect 1 0 2 0;
#X connect 2 0 3 0;
#X connect 2 1 3 1;
#X connect 3 0 4 0;
#X connect 4 0 23 0;
#X connect 5 0 17 0;
#X connect 6 0 7 0;
#X connect 7 0 14 1;
#X connect 8 0 12 0;
#X connect 8 1 13 0;
#X connect 9 0 10 0;
#X connect 9 1 11 0;
#X connect 10 0 21 0;
#X connect 10 0 22 0;
#X connect 11 0 22 0;
#X connect 12 0 19 0;
#X connect 12 0 20 0;
#X connect 13 0 20 0;
#X connect 14 0 5 0;
#X connect 15 0 8 0;
#X connect 16 0 15 1;
#X connect 19 0 14 0;
#X connect 20 0 14 0;
#X connect 21 0 14 0;
#X connect 22 0 14 0;
#X connect 23 0 14 0;
#X restore 351 362 pd metro-and-trig;
#X obj 324 403 s oscOut;
#N canvas 441 131 1020 974 midiInput 1;
#X obj 528 817 outlet oscOut;
#X msg 675 686 sendtyped /key ii 1 \$1;
#X text 820 685 Info Disp;
#X text 734 524 Auto-clear Toggle;
#X msg 591 524 sendtyped /key ii 3 \$1;
#X text 753 297 Previous Mode;
#X text 774 273 Next Mode;
#X text 690 327 Next Scene;
#X text 712 479 Save or delete Scene;
#X msg 570 479 sendtyped /key ii 8 \$1;
#X msg 654 646 sendtyped /key ii 9 \$1;
#X text 797 646 Screenshot;
#X obj 138 360 i;
#X obj 138 336 + 1;
#X obj 83 633 notein;
#X text 112 27 MIDI IN;
#X obj 71 27 ctlin;
#X obj 83 722 pack 0 0;
#X obj 84 111 pack 0 0;
#X obj 182 58 r midiCh;
#X obj 167 84 i 1;
#X obj 140 111 ==;
#X obj 140 58 t f b;
#X obj 84 139 spigot;
#X obj 83 751 spigot;
#X obj 188 673 r midiCh;
#X obj 173 698 i 1;
#X obj 146 722 ==;
#X obj 146 673 t f b;
#X text 162 362 Shift Params;
#X text 671 354 Previous Scene;
#X text 388 451 Midi cc;
#X msg 274 474 sendtyped /midicc ii \$1 \$2;
#X text 126 634 Midi note;
#X msg 83 803 sendtyped /midinote ii \$1 \$2;
#X obj 84 162 t a a;
#X obj 276 396 list store;
#X obj 276 352 bang;
#X msg 32 111 30 127;
#X obj 111 405 / 127;
#X obj 138 294 / 127;
#X obj 276 417 unpack 0 0;
#X obj 274 451 pack 0 0;
#X obj 91 781 s midiNoteIn;
#X obj 84 271 route 33 34 35;
#X msg 697 801 sendtyped /key ii 10 \$1;
#X text 847 802 Trigger;
#X obj 84 562 s shiftKey;
#X obj 138 381 s trigSource;
#X msg 111 457 sendtyped /ascale f \$1;
#X obj 138 314 * 5;
#X obj 276 318 route 21 22 23 24 25, f 21;
#X text 410 319 Knobs 1-5;
#X obj 528 176 route 26 27 28 29 30 31 32 36 37;
#X msg 549 326 sendtyped /key ii 7 \$1;
#X msg 612 296 sendtyped /key ii 4 \$1;
#X msg 633 273 sendtyped /key ii 5 \$1;
#X msg 528 353 sendtyped /key ii 6 \$1;
#X obj 570 409 change -1;
#X obj 570 432 == 0;
#X obj 570 457 tgl 15 0 empty empty empty 17 7 0 10 -262144 -1 -1 0
1;
#X obj 697 730 change -1;
#X obj 697 753 == 0;
#X obj 697 778 tgl 15 0 empty empty empty 17 7 0 10 -262144 -1 -1 0
1;
#X obj 654 569 change -1;
#X obj 654 592 == 0;
#X obj 654 617 tgl 15 0 empty empty empty 17 7 0 10 -262144 -1 -1 0
1;
#X obj 84 493 change -1;
#X obj 84 516 == 0;
#X obj 84 541 tgl 15 0 empty empty empty 17 7 0 10 -262144 -1 -1 0
1;
#X obj 111 428 * 6;
#N canvas 682 64 678 300 midiMec 1;
#X obj 197 252 outlet channel;
#X obj 23 252 outlet value;
#X obj 116 252 outlet cc;
#X obj 23 126 r knob_1;
#X obj 83 126 r knob_2;
#X obj 144 126 r knob_3;
#X obj 203 126 r knob_4;
#X obj 263 126 r knob_5;
#X msg 23 147 21;
#X msg 83 147 22;
#X msg 144 147 23;
#X msg 203 147 24;
#X msg 263 147 25;
#X msg 197 232 1;
#X connect 3 0 8 0;
#X connect 3 0 1 0;
#X connect 3 0 13 0;
#X connect 4 0 9 0;
#X connect 4 0 1 0;
#X connect 4 0 13 0;
#X connect 5 0 10 0;
#X connect 5 0 1 0;
#X connect 5 0 13 0;
#X connect 6 0 11 0;
#X connect 6 0 1 0;
#X connect 6 0 13 0;
#X connect 7 0 12 0;
#X connect 7 0 1 0;
#X connect 7 0 13 0;
#X connect 8 0 2 0;
#X connect 9 0 2 0;
#X connect 10 0 2 0;
#X connect 11 0 2 0;
#X connect 12 0 2 0;
#X connect 13 0 0 0;
#X restore 4 44 pd midiMec;
#X connect 1 0 0 0;
#X connect 4 0 0 0;
#X connect 9 0 0 0;
#X connect 10 0 0 0;
#X connect 12 0 48 0;
#X connect 13 0 12 0;
#X connect 14 0 17 0;
#X connect 14 1 17 1;
#X connect 14 2 28 0;
#X connect 16 0 18 1;
#X connect 16 1 18 0;
#X connect 16 2 22 0;
#X connect 17 0 24 0;
#X connect 18 0 23 0;
#X connect 19 0 20 1;
#X connect 20 0 21 1;
#X connect 21 0 23 1;
#X connect 22 0 21 0;
#X connect 22 1 20 0;
#X connect 23 0 35 0;
#X connect 24 0 34 0;
#X connect 24 0 43 0;
#X connect 25 0 26 1;
#X connect 26 0 27 1;
#X connect 27 0 24 1;
#X connect 28 0 27 0;
#X connect 28 1 26 0;
#X connect 32 0 0 0;
#X connect 34 0 0 0;
#X connect 35 0 44 0;
#X connect 35 0 51 0;
#X connect 35 0 53 0;
#X connect 35 1 36 1;
#X connect 36 0 41 0;
#X connect 37 0 36 0;
#X connect 38 0 23 0;
#X connect 39 0 70 0;
#X connect 40 0 50 0;
#X connect 41 0 42 1;
#X connect 41 1 42 0;
#X connect 42 0 32 0;
#X connect 44 0 67 0;
#X connect 44 1 39 0;
#X connect 44 2 40 0;
#X connect 45 0 0 0;
#X connect 49 0 0 0;
#X connect 50 0 13 0;
#X connect 51 0 37 0;
#X connect 51 1 37 0;
#X connect 51 2 37 0;
#X connect 51 3 37 0;
#X connect 51 4 37 0;
#X connect 53 0 57 0;
#X connect 53 1 54 0;
#X connect 53 2 58 0;
#X connect 53 3 4 0;
#X connect 53 4 55 0;
#X connect 53 5 56 0;
#X connect 53 6 64 0;
#X connect 53 7 1 0;
#X connect 53 8 61 0;
#X connect 54 0 0 0;
#X connect 55 0 0 0;
#X connect 56 0 0 0;
#X connect 57 0 0 0;
#X connect 58 0 59 0;
#X connect 59 0 60 0;
#X connect 60 0 9 0;
#X connect 61 0 62 0;
#X connect 62 0 63 0;
#X connect 63 0 45 0;
#X connect 64 0 65 0;
#X connect 65 0 66 0;
#X connect 66 0 10 0;
#X connect 67 0 68 0;
#X connect 68 0 69 0;
#X connect 69 0 47 0;
#X connect 70 0 49 0;
#X connect 71 0 18 1;
#X connect 71 1 18 0;
#X connect 71 2 22 0;
#X restore 338 337 pd midiInput;
#X obj 367 114 unpackOSC;
#X obj 367 91 udpreceive 4001;
#N canvas 421 99 735 387 sendParamsToEngine 0;
#X obj 30 85 r link-session-present;
#X msg 20 150 sendtyped /linkpresent i \$1;
#X obj 20 120 i;
#X obj 20 63 inlet;
#X obj 20 303 outlet;
#X obj 406 106 r shiftKey;
#X msg 406 149 sendtyped /shift i \$1;
#X msg 206 149 sendtyped /trigger_source i \$1;
#X obj 206 105 r trigSource;
#X obj 551 105 r midiCh;
#X msg 551 149 sendtyped /midi_ch i \$1;
#X obj 551 128 change;
#X obj 406 129 change;
#X obj 206 128 change;
#X text 17 12 there isn't a mechanism for this patch to know when the
video engine is ready to receive params \, so we just send this every
second...;
#X connect 0 0 2 0;
#X connect 1 0 4 0;
#X connect 2 0 1 0;
#X connect 3 0 2 0;
#X connect 5 0 12 0;
#X connect 6 0 4 0;
#X connect 7 0 4 0;
#X connect 8 0 13 0;
#X connect 9 0 11 0;
#X connect 11 0 10 0;
#X connect 12 0 6 0;
#X connect 13 0 7 0;
#X restore 324 313 pd sendParamsToEngine;
#X text 382 403 Sends to the python engine;
#X obj 175 119 t b b;
#X obj 367 238 s shiftKey;
#X obj 432 198 s midiCh;
#X obj 497 238 s trigSource;
#X obj 432 180 i;
#X obj 367 137 route /shift /midi_ch /trigsource;
#X obj 14 18 declare -stdpath blokas;
#X obj 14 38 monorack eyesy;
#X connect 0 0 9 0;
#X connect 1 0 2 0;
#X connect 2 0 0 0;
#X connect 3 0 10 0;
#X connect 4 0 2 0;
#X connect 5 0 12 0;
#X connect 6 0 22 0;
#X connect 10 0 1 0;
#X connect 11 0 10 1;
#X connect 12 0 4 0;
#X connect 12 0 20 0;
#X connect 13 0 8 0;
#X connect 15 0 16 0;
#X connect 17 0 16 0;
#X connect 18 0 27 0;
#X connect 19 0 18 0;
#X connect 20 0 16 0;
#X connect 22 0 5 0;
#X connect 22 1 13 0;
#X connect 26 0 24 0;
#X connect 27 0 23 0;
#X connect 27 1 26 0;
#X connect 27 2 25 0;
